#!OML:ASF F:\VICON\USERDATA\INSTALL\rory3\rory3.ASF
:FULLY-SPECIFIED
:DEGREES
61
root 0.2840427532448915 17.852846831129266 24.04043278305187 -1.7183650034709772 0.3574096976909362 -0.043097082414573995
lfemur 12.04095307130187 -6.343939901152362 -23.775274263828308
ltibia 32.006182284620174
lfoot 1.652952808056777 -10.686171200465356
ltoes -15.779503216384393
rfemur -22.499790086496162 5.5524264918434 22.609763247400778
rtibia 28.514671650963272
rfoot -8.552245006768926 -4.967041406202932
rtoes -0.07226530578230328
lowerback nan -1.1547261004930585 -0.9198003295486286
upperback 0.27429372538280555 -1.5074007739729234 1.840163735885308
thorax -4.661541998386133 -0.752103978314704 2.6281904518678854
lowerneck -16.50753257933163 -2.648254313816368 -2.2831581909884666
upperneck 20.995878144594766 -3.2661637414917646 0.9753771940077947
head 9.387972277022529 -1.6023262314704967 0.2775151724841726
lclavicle -1.8038069438998585e-16 -1.6149272838918834e-15
lhumerus -25.779114573094652 1.734988637110682 80.29949685687794
lradius 29.967514739489815
lwrist 8.844179870748857
lhand -29.729765903510433 18.336123476354786
lfingers nan
lthumb -2.866761165658053 48.733271434132384
rclavicle -1.185203981442898e-15 -2.467167366400625e-15
rhumerus -37.119821062709825 -29.147295774639236 -71.62410974633089
rradius 22.648979917434293
rwrist 6.705983318152227
rhand -18.037933230458197 nan
rfingers nan
rthumb 8.172524219223256 -7.4637231025708095
62
root 0.19985783669943938 17.97161575678069 24.057195675948492 -2.188783392489726 0.46570000380625487 -1.6041792880992847
lfemur 7.532237066349298 -4.5775137599815245 -20.804017782231124
ltibia 41.544966638225844
lfoot 8.026539061411796 -15.255118283333307
ltoes -8.502870224470314
rfemur -19.819316588502808 5.733240473714859 24.816563667354032
rtibia 28.823747298938954
rfoot -9.19345497947496 -4.191308937547505
rtoes 3.1934533525079973
lowerback nan -1.1206624701311072 0.6523626986481984
upperback 0.2167508189758041 -1.1919873016261704 2.1560603655052506
thorax -4.837778542615558 -0.6262311547149781 2.1476490249229405
lowerneck -16.422305701448213 -2.6114277202407945 -2.2280745286952053
upperneck 21.023292795423522 -3.21175922212427 0.9141818974058209
head 9.39022204741797 -1.5837794468033948 0.25769851685047834
lclavicle -1.5699027265847704e-16 -1.6255029065684201e-15
lhumerus -27.027321736379896 2.1931315314708453 80.67829918951963
lradius 29.544864128854208
lwrist 8.073781582250865
lhand -28.987470968509655 19.34195456511162
lfingers nan
lthumb -2.1143180571309896 49.91014894545183
rclavicle -1.2028146935105039e-15 -2.514885748693245e-15
rhumerus -36.601770974326556 -28.520814353427454 -72.15987743676617
rradius 22.29781095213297
rwrist 7.151048774008148
rhand -17.954308419518636 nan
rfingers nan
rthumb 8.235424511979694 -7.653624213989038
63
root 0.12413720082250901 18.068519079637635 24.461046883542558 -2.50323906243549 0.5343942461139095 -2.9157192949353132
lfemur 2.1288805991325344 -2.607448120585032 -17.78283034728156
ltibia 51.13608369400873
lfoot 12.447344991330574 -18.605022282186265
ltoes 0.8766753385905788
rfemur -16.278372671609212 6.077300309720131 26.956443170289386
rtibia 27.763957263366407
rfoot -10.58049308631352 -4.256313219495325
rtoes 4.98376299063929
lowerback nan -0.9682017986066769 1.8857375555988352
upperback 0.20311684724826296 -0.8123350509344522 2.3468910680336883
thorax -4.984625912676405 -0.4558237879418202 1.6344639637299094
lowerneck -16.32705458489539 -2.614445026230868 -2.1835036369988843
upperneck 21.045570100166284 -3.2238502194381393 0.8994616456692026
head 9.38567097639885 -1.5906645681503342 0.24704408258183347
lclavicle -4.867186143119067e-17 -1.5737769848887744e-15
lhumerus -28.387214437761823 2.523955805202791 81.0380393473928
lradius 29.116240034223623
lwrist 7.4849639451565935
lhand -28.509001863516886 19.978004461178042
lfingers nan
lthumb -1.7110896078902633 50.52330898694258
rclavicle -1.1257904091584109e-15 -2.488709006295861e-15
rhumerus -35.45672829292595 -27.172155528294343 -73.31477242944626
rradius 22.29198779325162
rwrist 7.013430192769141
rhand -17.885138508062216 nan
rfingers nan
rthumb 8.284806850749248 -7.925263323616286
64
root 0.08451012772454403 18.10668229779612 24.808831642083128 -2.7232154439713994 0.21109177374521204 -3.4879421393548093
lfemur -3.213645730755868 -0.37804256924748225 -16.04906734949024
ltibia 59.06506955090785
lfoot 12.248498157373163 -17.1156822041389
ltoes 3.5335287215210394
rfemur -12.987270521510004 6.040989631020094 28.478733695943685
rtibia 26.883435600210653
rfoot -12.097680428334172 -4.272525712684799
rtoes 5.549000102703746
lowerback nan -0.6921485063233939 2.461463024398423
upperback 0.25874551981854865 -0.41794406955853924 2.3540821751211163
thorax -4.995798251302484 -0.2757971266232112 1.1690659461212347
lowerneck -16.212420493514664 -2.6410447375881976 -2.1209715686310346
upperneck 21.06338535869688 -3.2821774273951925 0.896471851792328
head 9.37590525371326 -1.6160458619574323 0.2336236884720026
lclavicle 5.405597423263493e-17 -1.503453452517925e-15
lhumerus -29.759321430044565 2.7544659724199674 81.3356352610447
lradius 28.67501397635472
lwrist 7.236826260005829
lhand -28.292983537947183 20.23435373763734
lfingers nan
lthumb -1.5694033331125672 50.65812880437445
rclavicle -1.0596819865176015e-15 -2.457110702706947e-15
rhumerus -33.76751555496416 -25.202131381181395 -74.90857920168412
rradius 22.61347592698889
rwrist 6.358458987261874
rhand -17.835229041371143 nan
rfingers nan
rthumb 8.337144451016025 -8.193797526475622
65
root 0.056913243044333206 18.134535845698124 25.30607075422082 -2.8270143010532935 -0.5010598055290107 -3.8310451324586046
lfemur -8.490647780082375 2.1068416082031116 -15.231116491112108
ltibia 64.64875922928175
lfoot 6.055697399577167 -14.757328550729664
ltoes -1.50532947304646
rfemur -9.665661350290941 6.352952934878866 29.48930558466725
rtibia 25.745375259528117
rfoot -14.029695242631536 -4.259509901519549
rtoes 5.7579526719009255
lowerback nan -0.3012304658111375 3.000527951572622
upperback 0.3586027447745922 0.10575105337983115 2.2859904980921733
thorax -4.892312123473489 -0.030250072208786893 0.692460431076138
lowerneck -16.119985622031844 -2.6883268322305733 -2.0617555112585664
upperneck 21.08957029317441 -3.3763243596110857 0.9053894263447876
head 9.371987644450169 -1.6546945277683691 0.21633446789619798
lclavicle 1.4067107626666585e-17 -1.5552977376920632e-15
lhumerus -31.07728926686642 2.944526552142767 81.54087886601016
lradius 28.213117125048683
lwrist 7.259335511629192
lhand -28.199296752107877 20.271825657323014
lfingers nan
lthumb -1.450489763452895 50.74419550690977
rclavicle -1.0703338527227805e-15 -2.477317679997e-15
rhumerus -31.75021334200899 -22.689847849680056 -76.68143870409462
rradius 23.290952270351408
rwrist 5.188933408178686
rhand -17.814016639145397 nan
rfingers nan
rthumb 8.371480808186755 -8.370466316056202
